<?xml version="1.0" encoding="utf-8"?>
<!-- Generator: Adobe Illustrator 23.1.0, SVG Export Plug-In . SVG Version: 6.00 Build 0)  -->
<svg version="1.1" xmlns="http://www.w3.org/2000/svg" xmlns:xlink="http://www.w3.org/1999/xlink" x="0px" y="0px"
	 viewBox="0 0 221 48" style="enable-background:new 0 0 221 48;" xml:space="preserve">
<style type="text/css">
	.st0{display:none;}
	.st1{display:inline;}
	.st2{fill-rule:evenodd;clip-rule:evenodd;}
	.st3{fill-rule:evenodd;clip-rule:evenodd;fill:#EE3524;}
	.st4{fill-rule:evenodd;clip-rule:evenodd;fill:#231F20;}
	.st5{fill:#333333;}
	.st6{fill:#EE3424;}
</style>
<g id="Layer_1" class="st0">
	<title>Logo</title>
	<desc>Created with Sketch.</desc>
	<g id="Symbols" class="st1">
		<g transform="translate(-59.000000, -59.000000)">
			<g transform="translate(59.000000, 59.000000)">
				<g id="Group">
					<path id="Fill-1" class="st2" d="M76.06,14.82c-0.87-0.8-1.88-1.4-3.03-1.81s-2.29-0.61-3.39-0.61c-0.92,0-1.84,0.12-2.74,0.35
						c-0.91,0.23-1.72,0.6-2.44,1.1c-0.72,0.5-1.3,1.14-1.75,1.93c-0.44,0.78-0.66,1.72-0.66,2.82c0,0.89,0.14,1.65,0.43,2.28
						c0.29,0.62,0.66,1.15,1.14,1.59c0.47,0.44,1.01,0.8,1.61,1.07c0.6,0.28,1.21,0.52,1.84,0.73c0.65,0.21,1.22,0.4,1.73,0.57
						c0.51,0.18,0.93,0.37,1.27,0.59c0.34,0.21,0.6,0.45,0.79,0.71c0.18,0.26,0.28,0.58,0.28,0.95c0,0.39-0.07,0.73-0.22,1
						c-0.15,0.28-0.35,0.5-0.6,0.67c-0.25,0.17-0.54,0.29-0.87,0.36c-0.33,0.07-0.67,0.11-1.02,0.11c-0.78,0-1.56-0.2-2.34-0.6
						c-0.79-0.4-1.42-0.9-1.9-1.49l-3.1,3.18c0.87,0.91,1.96,1.62,3.27,2.11c1.31,0.49,2.67,0.74,4.07,0.74
						c0.96,0,1.89-0.13,2.8-0.39c0.9-0.26,1.71-0.66,2.41-1.2c0.7-0.54,1.26-1.22,1.68-2.05c0.42-0.83,0.62-1.81,0.62-2.95
						c0-0.99-0.19-1.81-0.58-2.47s-0.88-1.21-1.47-1.66s-1.25-0.8-1.97-1.07s-1.41-0.52-2.08-0.74c-0.46-0.15-0.88-0.29-1.25-0.43
						c-0.37-0.14-0.69-0.29-0.96-0.46c-0.27-0.17-0.47-0.36-0.61-0.59c-0.14-0.22-0.21-0.5-0.21-0.84c0-0.39,0.09-0.71,0.26-0.96
						c0.18-0.25,0.39-0.46,0.65-0.61c0.26-0.16,0.55-0.27,0.87-0.32c0.32-0.06,0.64-0.08,0.96-0.08c0.61,0,1.24,0.15,1.9,0.46
						c0.66,0.31,1.19,0.72,1.59,1.24L76.06,14.82z M81.82,32.66h4.76V12.89h-4.76V32.66z M107.61,16.97v-4.08H91.79v4.08h5.54v15.69
						h4.74V16.97H107.61z M126.5,32.66v-4.08h-9.11v-4.1h8.14v-3.82h-8.14v-3.74H126v-4.02h-13.19v19.77H126.5z M149.11,29.92
						l-3.3-3.13c-0.43,0.6-0.99,1.08-1.69,1.45c-0.7,0.37-1.52,0.56-2.47,0.56c-0.81,0-1.56-0.15-2.24-0.45
						c-0.68-0.3-1.27-0.71-1.76-1.24c-0.49-0.53-0.87-1.17-1.15-1.91c-0.28-0.74-0.42-1.56-0.42-2.46c0-0.87,0.14-1.68,0.42-2.41
						c0.28-0.73,0.66-1.37,1.16-1.91c0.5-0.54,1.09-0.96,1.79-1.27c0.69-0.31,1.45-0.46,2.29-0.46c0.76,0,1.5,0.15,2.22,0.45
						c0.72,0.3,1.3,0.75,1.74,1.37l3.21-3.24c-0.83-0.95-1.92-1.67-3.26-2.16c-1.34-0.49-2.7-0.74-4.09-0.74
						c-1.5,0-2.89,0.24-4.18,0.73c-1.29,0.48-2.42,1.18-3.38,2.08c-0.96,0.9-1.71,2-2.26,3.28c-0.54,1.28-0.82,2.72-0.82,4.3
						c0,1.55,0.27,2.96,0.8,4.24c0.54,1.28,1.27,2.39,2.22,3.31c0.94,0.92,2.05,1.63,3.34,2.14c1.28,0.5,2.68,0.75,4.2,0.75
						c1.66,0,3.13-0.29,4.4-0.88C147.17,31.72,148.24,30.93,149.11,29.92L149.11,29.92z M172.52,18.41
						c-0.54-1.27-1.28-2.36-2.23-3.25c-0.95-0.89-2.08-1.58-3.39-2.07c-1.31-0.48-2.73-0.73-4.27-0.73c-1.53,0-2.95,0.24-4.25,0.73
						c-1.3,0.48-2.43,1.17-3.38,2.07c-0.95,0.89-1.7,1.98-2.23,3.25c-0.54,1.27-0.8,2.7-0.8,4.28c0,1.56,0.27,2.99,0.8,4.29
						c0.54,1.29,1.28,2.4,2.23,3.32c0.95,0.92,2.08,1.63,3.38,2.14c1.3,0.5,2.72,0.75,4.25,0.75c1.53,0,2.95-0.25,4.27-0.75
						c1.31-0.5,2.44-1.21,3.39-2.14c0.95-0.92,1.69-2.03,2.23-3.32c0.54-1.29,0.8-2.72,0.8-4.29
						C173.32,21.11,173.05,19.68,172.52,18.41L172.52,18.41z M167.83,25.16c-0.28,0.75-0.66,1.4-1.16,1.94
						c-0.5,0.54-1.09,0.96-1.77,1.27c-0.68,0.31-1.44,0.46-2.27,0.46c-0.83,0-1.59-0.15-2.27-0.46c-0.68-0.31-1.27-0.73-1.76-1.27
						c-0.49-0.54-0.87-1.19-1.15-1.94c-0.28-0.75-0.42-1.58-0.42-2.47c0-0.86,0.13-1.66,0.4-2.4c0.27-0.74,0.65-1.38,1.15-1.91
						c0.5-0.53,1.09-0.95,1.77-1.26c0.68-0.31,1.44-0.46,2.27-0.46c0.83,0,1.59,0.15,2.29,0.46c0.69,0.31,1.28,0.73,1.77,1.26
						c0.49,0.53,0.87,1.17,1.15,1.91s0.42,1.54,0.42,2.4C168.25,23.59,168.11,24.41,167.83,25.16L167.83,25.16z M194.57,32.66
						l-5.12-8.46c1.27-0.39,2.27-1.04,2.99-1.95c0.72-0.91,1.08-2.04,1.08-3.38c0-1.13-0.21-2.08-0.64-2.85
						c-0.42-0.76-0.99-1.38-1.7-1.84c-0.71-0.46-1.51-0.8-2.41-0.99c-0.9-0.2-1.81-0.29-2.76-0.29h-7.48v19.77h4.63v-7.84h1.61
						l4.26,7.84H194.57z M188.51,20.18c-0.21,0.32-0.49,0.56-0.82,0.73c-0.33,0.17-0.7,0.28-1.11,0.35c-0.41,0.07-0.81,0.1-1.2,0.1
						h-2.25v-4.61h2.53c0.35,0,0.72,0.03,1.1,0.08c0.38,0.06,0.72,0.16,1.03,0.32c0.31,0.16,0.56,0.38,0.75,0.67
						c0.19,0.29,0.29,0.67,0.29,1.13C188.83,19.45,188.72,19.86,188.51,20.18L188.51,20.18z M213.21,32.66v-4.08h-9.11v-4.1h8.14
						v-3.82h-8.14v-3.74h8.62v-4.02h-13.19v19.77H213.21z"/>
					<path id="Fill-3" class="st3" d="M22.61,34.88c1.86-0.24,3.65-0.81,5.28-1.72c4.01-2.25,6.33-6.12,6.53-10.89l0.02-0.41h5.56
						c-0.35-2.83-1.42-5.44-3-7.64l-5.68,3.68c1.73,2.73,1.95,5.76,0.64,8.78C30.39,30.25,26.72,33.39,22.61,34.88"/>
					<path id="Fill-5" class="st3" d="M40.07,22.72h-4.82c-0.32,4.83-2.84,8.9-6.94,11.2c-2.34,1.31-5.01,1.97-7.73,1.97
						c-2.11,0-4.25-0.39-6.31-1.18c2.47,1.55,5.24,2.4,8.12,2.41h0.04c5.19,0,9.85-2.77,12.47-7.41l0.22-0.39l3.23,2.06
						c1.14-2.25,1.78-4.78,1.78-7.47C40.12,23.51,40.1,23.11,40.07,22.72"/>
					<path id="Fill-7" class="st3" d="M22.42,37.98h-0.05c-5.17-0.02-10.03-2.59-13.48-7.04c2.63,5.6,8.29,9.49,14.83,9.49
						c6.07,0,11.37-3.34,14.21-8.29l-2.52-1.61C32.6,35.21,27.78,37.98,22.42,37.98"/>
					<path id="Fill-9" class="st3" d="M23.73,0C10.62,0,0,10.7,0,23.91s10.62,23.91,23.73,23.91s23.73-10.7,23.73-23.91
						S36.83,0,23.73,0 M23.73,41.3c-9.53,0-17.25-7.78-17.25-17.39c0-9.6,7.72-17.39,17.25-17.39s17.25,7.78,17.25,17.39
						C40.98,33.51,33.25,41.3,23.73,41.3"/>
					<path id="Fill-11" class="st4" d="M216.88,15.66c0.1,0.23,0.24,0.44,0.42,0.61c0.18,0.17,0.38,0.31,0.62,0.41
						c0.24,0.1,0.49,0.15,0.75,0.15c0.27,0,0.52-0.05,0.75-0.15c0.24-0.1,0.44-0.24,0.62-0.41c0.18-0.17,0.32-0.38,0.42-0.61
						c0.1-0.23,0.15-0.49,0.15-0.76c0-0.27-0.05-0.52-0.15-0.76c-0.1-0.24-0.24-0.44-0.42-0.62c-0.18-0.17-0.38-0.31-0.62-0.42
						c-0.24-0.1-0.49-0.15-0.75-0.15c-0.27,0-0.52,0.05-0.75,0.15c-0.24,0.1-0.44,0.24-0.62,0.42c-0.18,0.17-0.31,0.38-0.42,0.62
						c-0.1,0.24-0.15,0.49-0.15,0.76C216.72,15.17,216.77,15.42,216.88,15.66L216.88,15.66z M217.16,14.26
						c0.09-0.2,0.2-0.37,0.35-0.52c0.15-0.15,0.32-0.27,0.52-0.35c0.2-0.09,0.41-0.13,0.64-0.13c0.23,0,0.44,0.04,0.64,0.13
						c0.2,0.09,0.37,0.2,0.52,0.35c0.15,0.15,0.26,0.32,0.35,0.52c0.08,0.2,0.13,0.42,0.13,0.64c0,0.22-0.04,0.44-0.13,0.64
						c-0.09,0.2-0.2,0.38-0.35,0.53c-0.15,0.15-0.32,0.27-0.52,0.36c-0.2,0.09-0.41,0.13-0.64,0.13c-0.23,0-0.44-0.04-0.64-0.13
						c-0.2-0.09-0.37-0.2-0.52-0.36c-0.15-0.15-0.26-0.33-0.35-0.53c-0.09-0.2-0.13-0.41-0.13-0.64
						C217.03,14.67,217.07,14.46,217.16,14.26L217.16,14.26z M217.91,15.99h0.39v-0.92h0.28l0.51,0.92h0.48l-0.59-0.96
						c0.15-0.03,0.28-0.1,0.37-0.2c0.09-0.1,0.14-0.23,0.14-0.39c0-0.12-0.02-0.22-0.07-0.3c-0.05-0.08-0.11-0.15-0.18-0.2
						c-0.08-0.05-0.16-0.09-0.26-0.11c-0.1-0.02-0.2-0.03-0.3-0.03h-0.77V15.99z M218.3,14.75v-0.63h0.36c0.1,0,0.2,0.02,0.29,0.06
						c0.09,0.04,0.14,0.12,0.14,0.24c0,0.13-0.05,0.22-0.15,0.26c-0.1,0.04-0.21,0.06-0.32,0.06H218.3z"/>
				</g>
			</g>
		</g>
	</g>
</g>
<g id="Layer_2">
	<path class="st5" d="M17.04,30c0,2.11-0.76,3.78-2.28,4.99s-3.63,1.82-6.34,1.82c-2.5,0-4.7-0.47-6.62-1.41V30.8
		c1.58,0.7,2.91,1.2,4.01,1.49c1.09,0.29,2.09,0.43,3,0.43c1.09,0,1.92-0.21,2.5-0.62c0.58-0.42,0.87-1.03,0.87-1.86
		c0-0.46-0.13-0.87-0.38-1.22c-0.26-0.36-0.63-0.7-1.13-1.03c-0.5-0.33-1.51-0.86-3.03-1.58c-1.43-0.67-2.5-1.32-3.22-1.94
		s-1.29-1.34-1.71-2.16c-0.43-0.82-0.64-1.78-0.64-2.88c0-2.07,0.7-3.7,2.1-4.88s3.34-1.78,5.81-1.78c1.22,0,2.38,0.14,3.48,0.43
		c1.1,0.29,2.26,0.69,3.46,1.22l-1.6,3.86c-1.25-0.51-2.28-0.87-3.1-1.07c-0.82-0.2-1.62-0.3-2.41-0.3c-0.94,0-1.66,0.22-2.16,0.66
		s-0.75,1.01-0.75,1.71c0,0.44,0.1,0.82,0.3,1.14c0.2,0.33,0.53,0.64,0.97,0.94c0.44,0.3,1.49,0.85,3.14,1.64
		c2.19,1.05,3.68,2.09,4.49,3.14S17.04,28.47,17.04,30z"/>
	<path class="st5" d="M40.19,36.49h-5.66l-5.44-8.85l-5.44,8.85h-5.31l7.76-12.06L18.83,13.1h5.47l5.04,8.41l4.94-8.41h5.34
		l-7.34,11.6L40.19,36.49z"/>
	<path class="st5" d="M57.45,36.49l-1.7-5.57h-8.53l-1.7,5.57h-5.34l8.25-23.48h6.06l8.29,23.48H57.45z M54.57,26.77
		c-1.57-5.04-2.45-7.9-2.65-8.56c-0.2-0.66-0.34-1.18-0.42-1.57c-0.35,1.36-1.36,4.74-3.02,10.13H54.57z"/>
	<path class="st6" d="M87.52,30.46c0,1.95-0.72,3.5-2.15,4.64c-1.43,1.14-3.34,1.71-5.72,1.71c-2.86,0-5.05-0.31-6.57-0.94v-1.63
		c1.68,0.71,3.83,1.07,6.45,1.07c1.92,0,3.44-0.44,4.57-1.32c1.13-0.88,1.69-2.03,1.69-3.46c0-0.89-0.19-1.62-0.56-2.2
		c-0.37-0.58-0.98-1.11-1.82-1.59c-0.84-0.48-2.08-1-3.71-1.55c-2.39-0.82-4.04-1.71-4.95-2.66c-0.91-0.95-1.37-2.23-1.37-3.82
		c0-1.75,0.69-3.18,2.06-4.28c1.37-1.1,3.13-1.66,5.29-1.66c2.2,0,4.26,0.42,6.19,1.25l-0.59,1.41c-1.94-0.81-3.8-1.22-5.57-1.22
		c-1.73,0-3.1,0.4-4.13,1.2c-1.02,0.8-1.54,1.89-1.54,3.26c0,0.86,0.16,1.57,0.47,2.13c0.31,0.55,0.83,1.05,1.54,1.5
		c0.71,0.44,1.94,0.97,3.68,1.59c1.82,0.63,3.19,1.24,4.11,1.83c0.92,0.59,1.59,1.26,2.01,2.02C87.31,28.49,87.52,29.39,87.52,30.46
		z"/>
	<path class="st6" d="M96.65,35.4c1,0,1.88-0.09,2.62-0.26v1.28c-0.77,0.26-1.65,0.38-2.66,0.38c-1.54,0-2.67-0.41-3.4-1.23
		c-0.73-0.82-1.1-2.11-1.1-3.87V20.48h-2.58v-0.93l2.58-0.72l0.8-3.94h0.82v4.21h5.1v1.38h-5.1v11.01c0,1.33,0.23,2.32,0.7,2.96
		C94.92,35.08,95.65,35.4,96.65,35.4z"/>
	<path class="st6" d="M100.13,19.1h1.63l3.68,9.76c1.12,3,1.83,5.02,2.13,6.06h0.1c0.45-1.38,1.18-3.43,2.19-6.16l3.68-9.66h1.63
		l-7.79,20.2c-0.63,1.64-1.16,2.75-1.58,3.33s-0.93,1.01-1.5,1.3c-0.57,0.29-1.26,0.43-2.07,0.43c-0.61,0-1.29-0.11-2.03-0.34v-1.38
		c0.62,0.17,1.29,0.26,2,0.26c0.54,0,1.02-0.13,1.44-0.38c0.42-0.26,0.79-0.65,1.13-1.19c0.34-0.54,0.73-1.39,1.17-2.56
		c0.44-1.17,0.73-1.93,0.86-2.28L100.13,19.1z"/>
	<path class="st6" d="M119.66,36.49h-1.58V11.6h1.58V36.49z"/>
	<path class="st6" d="M132.5,36.81c-2.53,0-4.5-0.78-5.91-2.34c-1.41-1.56-2.12-3.74-2.12-6.54c0-2.77,0.68-4.99,2.05-6.66
		s3.2-2.5,5.52-2.5c2.05,0,3.66,0.71,4.85,2.14c1.18,1.43,1.78,3.37,1.78,5.82v1.28h-12.52c0.02,2.39,0.58,4.21,1.67,5.47
		s2.66,1.89,4.69,1.89c0.99,0,1.86-0.07,2.62-0.21c0.75-0.14,1.7-0.44,2.86-0.9v1.44c-0.98,0.43-1.89,0.72-2.72,0.87
		C134.42,36.73,133.5,36.81,132.5,36.81z M132.04,20.18c-1.67,0-3.02,0.55-4.03,1.66c-1.01,1.1-1.6,2.7-1.78,4.77h10.75
		c0-2.02-0.44-3.59-1.31-4.73C134.79,20.74,133.58,20.18,132.04,20.18z"/>
	<path class="st6" d="M157.02,19.1v1.1l-3.6,0.22c0.96,1.19,1.44,2.51,1.44,3.94c0,1.67-0.56,3.03-1.67,4.07
		c-1.11,1.04-2.61,1.56-4.49,1.56c-0.79,0-1.34-0.03-1.66-0.1c-0.63,0.33-1.11,0.72-1.44,1.17c-0.33,0.45-0.5,0.92-0.5,1.42
		c0,0.55,0.21,0.96,0.63,1.22c0.42,0.26,1.13,0.38,2.12,0.38h3.04c1.89,0,3.33,0.38,4.33,1.14s1.5,1.89,1.5,3.38
		c0,1.83-0.74,3.25-2.23,4.25c-1.49,1-3.61,1.5-6.36,1.5c-2.19,0-3.88-0.42-5.08-1.26c-1.2-0.84-1.8-2.02-1.8-3.52
		c0-1.19,0.37-2.19,1.11-2.98c0.74-0.79,1.75-1.33,3.02-1.62c-0.52-0.22-0.94-0.54-1.26-0.95c-0.31-0.41-0.47-0.88-0.47-1.42
		c0-1.16,0.74-2.19,2.22-3.07c-1.01-0.42-1.8-1.07-2.37-1.96s-0.85-1.91-0.85-3.06c0-1.74,0.55-3.13,1.66-4.18
		c1.1-1.05,2.59-1.58,4.47-1.58c1.14,0,2.03,0.11,2.66,0.34H157.02z M142.95,39.43c0,2.39,1.78,3.58,5.33,3.58
		c4.56,0,6.85-1.46,6.85-4.37c0-1.05-0.36-1.8-1.07-2.27c-0.71-0.47-1.87-0.7-3.47-0.7h-2.85
		C144.54,35.68,142.95,36.93,142.95,39.43z M144.28,24.53c0,1.34,0.41,2.39,1.22,3.13s1.91,1.11,3.27,1.11
		c1.45,0,2.56-0.37,3.34-1.1c0.77-0.74,1.16-1.8,1.16-3.2c0-1.48-0.4-2.59-1.19-3.34c-0.79-0.74-1.91-1.11-3.34-1.11
		c-1.39,0-2.48,0.4-3.27,1.19C144.67,22,144.28,23.11,144.28,24.53z"/>
	<path class="st6" d="M161.97,19.1v11.26c0,1.75,0.37,3.02,1.1,3.82s1.88,1.19,3.42,1.19c2.07,0,3.59-0.52,4.57-1.57
		s1.46-2.75,1.46-5.1v-9.6h1.57v17.39h-1.34l-0.29-2.4h-0.1c-1.13,1.81-3.14,2.72-6.03,2.72c-3.96,0-5.93-2.12-5.93-6.35V19.1
		H161.97z"/>
	<path class="st6" d="M179.69,14.27c0-1.02,0.34-1.54,1.01-1.54c0.33,0,0.59,0.13,0.78,0.4c0.19,0.27,0.28,0.65,0.28,1.14
		c0,0.48-0.09,0.86-0.28,1.14s-0.45,0.42-0.78,0.42C180.03,15.82,179.69,15.31,179.69,14.27z M181.5,36.49h-1.58V19.1h1.58V36.49z"
		/>
	<path class="st6" d="M193.69,18.77c1.26,0,2.35,0.23,3.26,0.69c0.92,0.46,1.74,1.24,2.46,2.35h0.1c-0.06-1.34-0.1-2.66-0.1-3.95
		V11.6h1.57v24.89h-1.04l-0.4-2.66h-0.13c-1.32,1.98-3.22,2.98-5.69,2.98c-2.4,0-4.23-0.75-5.5-2.24c-1.27-1.49-1.9-3.67-1.9-6.53
		c0-3.01,0.63-5.31,1.89-6.89C189.46,19.56,191.29,18.77,193.69,18.77z M193.69,20.21c-1.9,0-3.32,0.67-4.28,2
		c-0.95,1.33-1.43,3.27-1.43,5.81c0,4.93,1.91,7.39,5.74,7.39c1.96,0,3.4-0.57,4.32-1.71s1.38-3.02,1.38-5.65v-0.27
		c0-2.69-0.45-4.62-1.35-5.8S195.7,20.21,193.69,20.21z"/>
	<path class="st6" d="M213.84,36.81c-2.53,0-4.5-0.78-5.91-2.34s-2.12-3.74-2.12-6.54c0-2.77,0.68-4.99,2.05-6.66s3.2-2.5,5.52-2.5
		c2.05,0,3.66,0.71,4.85,2.14c1.18,1.43,1.78,3.37,1.78,5.82v1.28h-12.52c0.02,2.39,0.58,4.21,1.67,5.47
		c1.09,1.26,2.66,1.89,4.69,1.89c0.99,0,1.86-0.07,2.62-0.21c0.75-0.14,1.7-0.44,2.86-0.9v1.44c-0.98,0.43-1.89,0.72-2.72,0.87
		C215.76,36.73,214.84,36.81,213.84,36.81z M213.38,20.18c-1.67,0-3.02,0.55-4.03,1.66s-1.6,2.7-1.78,4.77h10.75
		c0-2.02-0.44-3.59-1.31-4.73C216.13,20.74,214.92,20.18,213.38,20.18z"/>
</g>
</svg>
